# AST/ASF file generated using VICON BodyLanguage
# -----------------------------------------------
:version 1.10
:name VICON
:units
  mass 1.0
  length 0.45
  angle deg
:documentation
   .ast/.asf automatically generated from VICON data using
   VICON BodyBuilder and BodyLanguage model FoxedUp or BRILLIANT.MOD
:root
   order TX TY TZ RX RY RZ
   axis XYZ
   position 0 0 0  
   orientation 0 -0 0 
:bonedata
  begin
     id 1 
     name lhipjoint
     direction 0.500677 -0.737119 0.453848 
     length 2.34727 
     axis 0 -0 0  XYZ
  end
  begin
     id 2 
     name lfemur
     direction 0.34202 -0.939693 0  
     length 7.53653  
     axis 0 -0 20  XYZ
    dof rx ry rz
    limits (-160.0 20.0)
           (-70.0 70.0)
           (-60.0 70.0)
  end
  begin
     id 3 
     name ltibia
     direction 0.34202 -0.939693 0   
     length 6.85572   
     axis 0 -0 20   XYZ
    dof rx
    limits (-10.0 170.0)
  end
  begin
     id 4 
     name lfoot
     direction 0.155313 -0.426718 0.890949   
     length 2.18324   
     axis -90 -1.13533e-015 20   XYZ
    dof rx rz
    limits (-45.0 90.0)
           (-70.0 20.0)
  end
  begin
     id 5 
     name ltoes
     direction 1.53474e-011 -4.21647e-011 1   
     length 1.06748   
     axis -90 -1.13533e-015 20   XYZ
    dof rx
    limits (-90.0 20.0)
  end
  begin
     id 6 
     name rhipjoint
     direction -0.632471 -0.659587 0.406111   
     length 2.62319  
     axis 0 -0 0  XYZ 
  end
  begin
     id 7 
     name rfemur
     direction -0.34202 -0.939693 0   
     length 7.21735   
     axis 0 -0 -20   XYZ
    dof rx ry rz
    limits (-160.0 20.0)
           (-70.0 70.0)
           (-70.0 60.0)
  end
  begin
     id 8 
     name rtibia
     direction -0.34202 -0.939693 0   
     length 7.02558   
     axis 0 -0 -20   XYZ
    dof rx
    limits (-10.0 170.0)
 end
 begin
     id 9 
     name rfoot
     direction -0.16057 -0.441164 0.882945   
     length 2.10014  
     axis -90 1.13533e-015 -20   XYZ
    dof rx rz
    limits (-45.0 90.0)
           (-20.0 70.0)
  end
  begin
     id 10 
     name rtoes
     direction -1.53553e-011 -4.2192e-011 1   
     length 1.02554   
     axis -90 1.13533e-015 -20   XYZ
    dof rx
    limits (-90.0 20.0)
  end
  begin
     id 11 
     name lowerback
     direction 0.0401429 0.998861 -0.0258085   
     length 1.80848   
     axis 0 -0 0   XYZ
    dof rx ry rz
    limits (-20.0 45.0)
           (-30.0 30.0)
           (-30.0 30.0)
  end
  begin
     id 12 
     name upperback
     direction -0.0130978 0.999914 -0.000352645   
     length 1.8116   
     axis 0 -0 0   XYZ
    dof rx ry rz
    limits (-20.0 45.0)
           (-30.0 30.0)
           (-30.0 30.0)
  end
  begin
     id 13 
     name thorax
     direction -0.0300198 0.999453 0.0138573   
     length 1.81778   
     axis 0 -0 0   XYZ
    dof rx ry rz
    limits (-20.0 45.0)
           (-30.0 30.0)
           (-30.0 30.0)
  end
  begin
     id 14 
     name lowerneck
     direction -0.0401726 0.999191 -0.00173647   
     length 2.10594   
     axis 0 -0 0   XYZ
    dof rx ry rz
    limits (-20.0 45.0)
           (-30.0 30.0)
           (-30.0 30.0)
  end
  begin
     id 15 
     name upperneck
     direction 0.0119835 0.998501 0.0534085   
     length 2.07325   
     axis 0 -0 0   XYZ
    dof rx ry rz
    limits (-20.0 45.0)
           (-30.0 30.0)
           (-30.0 30.0)
  end
  begin
     id 16
     name head
     direction 0.00628309 0.999826 0.0175921  
     length 2.15096  
     axis 0 -0 0   XYZ
    dof rx ry rz
    limits (-20.0 45.0)
           (-30.0 30.0)
           (-30.0 30.0)
  end
  begin
     id 17 
     name lclavicle
     direction 0.895501 0.429681 -0.115981  
     length 4.18092  
     axis 0 -0 0   XYZ
    dof ry rz
    limits (-20.0 10.0)
           (0.0 20.0)
  end
  begin
     id 18 
     name lhumerus
     direction 1 -4.48961e-011 -3.38433e-028   
     length 5.77237   
     axis 180 -30 -90   XYZ
    dof rx ry rz
    limits (-60.0 90.0)
           (-90.0 90.0)
           (-90.0 90.0)
  end
  begin
     id 19
     name lradius
     direction 1 -4.4901e-011 1.11983e-026   
     length 2.91878   
     axis 180 -30 -90   XYZ
    dof rx
    limits (-10.0 170.0)
  end
  begin
     id 20
     name lwrist
     direction 1 -4.48934e-011 1.88176e-026   
     length 1.45939   
     axis -1.23311e-014 90 90   XYZ
    dof ry
    limits (-180.0 0.0)
 end
  begin
     id 21 
     name lhand
     direction 1 -4.4895e-011 3.76352e-026   
     length 1.06566   
     axis -2.40147e-014 90 90   XYZ
    dof rx rz
    limits (-90.0 90.0)
           (-45.0 45.0)
  end
  begin
     id 22 
     name lfingers
     direction 1 -4.49005e-011 7.52705e-026   
     length 0.859162   
     axis -4.80295e-014 90 90   XYZ
    dof rx
    limits (0.0 90.0)
  end
  begin
     id 23
     name lthumb
     direction 0.707107 -6.34885e-011 0.707107   
     length 1.23359   
     axis -90 45 -9.86935e-015   XYZ
    dof rx rz
    limits (-45.0 45.0)
           (-45.0 45.0)
  end
  begin
     id 24 
     name rclavicle
     direction -0.91006 0.40451 -0.0903492   
     length 4.23293  
     axis 0 -0 0   XYZ 
    dof ry rz
    limits (-10.0 20.0)
           (-20.0 0.0)
  end
  begin
     id 25 
     name rhumerus
     direction -1 -4.4897e-011 1.7415e-027  
     length 5.49854   
     axis 180 30 90   XYZ
    dof rx ry rz
    limits (-90.0 60.0)
           (-90.0 90.0)
           (-90.0 90.0)
  end
  begin
     id 26 
     name rradius
     direction -1 -4.48963e-011 1.21259e-026   
     length 3.1186   
     axis 180 30 90   XYZ
    dof rx
    limits (-10.0 170.0)
  end
  begin
     id 27 
     name rwrist
     direction -1 -4.48967e-011 1.88176e-026   
     length 1.5593   
     axis -1.23311e-014 -90 -90   XYZ
    dof ry
    limits (-180.0 0.0)
  end
  begin
     id 28
     name rhand
     direction -1 -4.4895e-011 3.76352e-026   
     length 0.71207   
     axis -2.40147e-014 -90 -90   XYZ
    dof rx rz
    limits (-90.0 90.0)
           (-45.0 45.0)
  end
  begin
     id 29
     name rfingers
     direction -1 -4.49005e-011 7.52705e-026   
     length 0.574089   
     axis -4.80295e-014 -90 -90   XYZ
    dof rx
    limits (0.0 90.0)
  end
  begin
     id 30
     name rthumb
     direction -0.707107 -6.34982e-011 0.707107   
     length 0.824281   
     axis -90 -45 9.86935e-015   XYZ
    dof rx rz
    limits (-45.0 45.0)
           (-45.0 45.0)
  end
:hierarchy
  begin
    root lhipjoint rhipjoint lowerback
    lhipjoint lfemur
    lfemur ltibia
    ltibia lfoot
    lfoot ltoes
    rhipjoint rfemur
    rfemur rtibia
    rtibia rfoot
    rfoot rtoes
    lowerback upperback
    upperback thorax
    thorax lowerneck lclavicle rclavicle
    lowerneck upperneck
    upperneck head
    lclavicle lhumerus
    lhumerus lradius
    lradius lwrist
    lwrist lhand lthumb
    lhand lfingers
    rclavicle rhumerus
    rhumerus rradius
    rradius rwrist
    rwrist rhand rthumb
    rhand rfingers
  end

#!OML:ASF C:\ViconDB\ViconDB\414\Spring2016\042216\male.ASF
:FULLY-SPECIFIED
:DEGREES
24
root -33.6887 17.2331 14.2284 -156.802 84.6532 -159.973
lowerback -3.04636 -1.55813 3.92565
upperback -0.318843 -2.19527 -0.69041
thorax 1.20505 -1.07573 -2.99575
lowerneck 0.521913 9.26909 0.87791
upperneck -2.82747 12.3022 -4.96663
head -0.580574 6.20444 -1.72271
rclavicle -1.37658e-014 2.98177e-015
rhumerus -31.6137 -3.92042 -93.0779
rradius 27.8838
rwrist 32.3213
rhand 14.4736 -19.2853
rfingers 7.12502
rthumb 39.3559 -44.7024
lclavicle -1.37658e-014 2.98177e-015
lhumerus -35.1807 14.7266 86.2535
lradius 31.0138
lwrist -17.7172
lhand -5.80769 11.5709
lfingers 7.12502
lthumb 20.0172 40.5598
rfemur -7.63564 11.3659 18.2685
rtibia 20.9952
rfoot -18.7278 -9.70458
rtoes -12.0583
lfemur -8.05545 -3.19769 -18.7217
ltibia 24.4763
lfoot -26.6932 16.7165
ltoes -14.9363
25
root -33.6854 17.2378 14.2222 -157.492 84.6407 -160.663
lowerback -3.01892 -1.57159 3.89988
upperback -0.310866 -2.21137 -0.697498
thorax 1.19728 -1.08399 -2.98837
lowerneck 0.530726 9.27493 0.839515
upperneck -2.91379 12.3067 -5.01581
head -0.608036 6.20923 -1.73557
rclavicle 1.6642e-014 -2.78299e-015
rhumerus -31.6252 -3.78731 -93.1099
rradius 27.9014
rwrist 32.114
rhand 14.3973 -19.4137
rfingers 7.12502
rthumb 39.2841 -44.8518
lclavicle 1.6642e-014 -2.78299e-015
lhumerus -35.1365 14.7825 86.2682
lradius 30.9617
lwrist -17.9896
lhand -5.98413 11.5532
lfingers 7.12502
lthumb 19.8476 40.5597
rfemur -7.62966 11.2329 18.1804
rtibia 21.025
rfoot -18.7515 -9.59851
rtoes -12.0786
lfemur -8.05855 -3.51268 -18.7983
ltibia 24.4823
lfoot -26.792 16.7748
ltoes -14.4879
26
root -33.6825 17.2377 14.218 -157.71 84.5951 -160.892
lowerback -2.97296 -1.58548 3.89397
upperback -0.326274 -2.22758 -0.691666
thorax 1.15485 -1.09329 -2.9777
lowerneck 0.540608 9.27171 0.909989
upperneck -2.95476 12.3012 -5.11339
head -0.61215 6.2078 -1.7786
rclavicle 2.35373e-014 2.18663e-015
rhumerus -31.6747 -3.80099 -93.1142
rradius 27.9232
rwrist 32.1753
rhand 14.2456 -18.956
rfingers 7.12502
rthumb 39.1411 -44.4354
lclavicle 2.35373e-014 2.18663e-015
lhumerus -35.1158 14.7258 86.316
lradius 31.1086
lwrist -17.5631
lhand -5.8514 11.824
lfingers 7.12502
lthumb 19.9752 40.8174
rfemur -7.61629 11.2798 18.162
rtibia 21.0189
rfoot -18.9299 -9.68839
rtoes -11.678
lfemur -8.06812 -3.58312 -18.824
ltibia 24.4841
lfoot -26.8082 16.8297
ltoes -14.5641
27
root -33.6791 17.2318 14.2145 -157.51 84.5752 -160.721
lowerback -2.9679 -1.60324 3.87741
upperback -0.347168 -2.25064 -0.63961
thorax 1.13141 -1.10569 -2.91495
lowerneck 0.59221 9.28591 0.823325
upperneck -3.02051 12.3168 -5.14175
head -0.644287 6.21867 -1.77927
rclavicle 3.15571e-014 -9.14409e-015
rhumerus -31.6835 -3.68444 -93.1067
rradius 27.8825
rwrist 32.3219
rhand 14.1402 -19.0672
rfingers 7.12502
rthumb 39.0417 -44.5752
lclavicle 3.15571e-014 -9.14409e-015
lhumerus -35.0904 14.7841 86.3878
lradius 31.1192
lwrist -17.5254
lhand -6.15921 11.9859
lfingers 7.12502
lthumb 19.6793 41.0098
rfemur -7.64248 11.288 18.168
rtibia 21.0297
rfoot -19.0261 -9.69949
rtoes -11.3114
lfemur -8.06197 -3.36906 -18.8285
ltibia 24.4866
lfoot -26.7709 16.8106
ltoes -14.9573
28
root -33.6736 17.2355 14.2099 -157.774 84.5727 -161.001
lowerback -2.98076 -1.5958 3.83856
upperback -0.341783 -2.24016 -0.634409
thorax 1.14668 -1.10022 -2.88802
lowerneck 0.587297 9.27078 0.783835
upperneck -3.0614 12.2951 -5.12559
head -0.660354 6.20867 -1.76956
rclavicle 2.61775e-014 -4.37326e-015
rhumerus -31.6753 -3.68654 -93.0743
rradius 27.8204
rwrist 32.4014
rhand 14.1481 -19.1536
rfingers 7.12502
rthumb 39.0492 -44.6595
lclavicle 2.61775e-014 -4.37326e-015
lhumerus -35.0118 14.8469 86.3847
lradius 31.0295
lwrist -17.681
lhand -6.1223 11.833
lfingers 7.12502
lthumb 19.7148 40.8532
rfemur -7.64619 11.3138 18.1254
rtibia 21.0607
rfoot -18.9956 -9.72411
rtoes -11.5886
lfemur -8.09605 -3.49004 -18.8587
ltibia 24.4952
lfoot -26.8265 16.7848
ltoes -14.7206
29
root -33.6685 17.2306 14.2053 -158.072 84.5757 -161.325
lowerback -3.01834 -1.58405 3.81919
upperback -0.304919 -2.22575 -0.673539
thorax 1.20595 -1.09132 -2.91903
lowerneck 0.513851 9.25859 0.800696
upperneck -3.11786 12.278 -5.07981
head -0.668143 6.1993 -1.7561
rclavicle -6.03808e-015 -7.35503e-015
rhumerus -31.5718 -3.80172 -93.1083
rradius 27.7418
rwrist 32.4467
rhand 14.0623 -19.0685
rfingers 7.12502
rthumb 38.9683 -44.5976
lclavicle -6.03808e-015 -7.35503e-015
lhumerus -34.8911 14.7733 86.3884
lradius 31.0286
lwrist -17.6066
lhand -6.39931 11.5825
lfingers 7.12502
lthumb 19.4485 40.6298
rfemur -7.66338 11.2944 18.0695
rtibia 21.0954
rfoot -18.9054 -9.72504
rtoes -12.0429
lfemur -8.08807 -3.31081 -18.925
ltibia 24.5066
lfoot -26.7854 16.7612
ltoes -14.8785
30
root -33.6656 17.2298 14.2025 -157.92 84.5664 -161.201
lowerback -3.02 -1.56238 3.83492
upperback -0.31107 -2.19725 -0.677303
thorax 1.20204 -1.07716 -2.9307
lowerneck 0.549042 9.23139 0.768381
upperneck -3.16728 12.2397 -5.05366
head -0.694271 6.18128 -1.74719
rclavicle -2.08848e-014 0
rhumerus -31.588 -3.95412 -93.0634
rradius 27.7082
rwrist 32.4865
rhand 14.0123 -18.9829
rfingers 7.12502
rthumb 38.9212 -44.5255
lclavicle -2.08848e-014 0
lhumerus -34.8568 14.7154 86.4304
lradius 31.0808
lwrist -17.5766
lhand -6.30832 11.5544
lfingers 7.12502
lthumb 19.5359 40.5929
rfemur -7.67227 11.384 18.0765
rtibia 21.0793
rfoot -18.9274 -9.79781
rtoes -12.0492
lfemur -8.12344 -3.20508 -18.9155
ltibia 24.5306
lfoot -26.8046 16.6973
ltoes -14.8872
31
root -33.662 17.2292 14.1983 -157.765 84.5305 -161.07
lowerback -3.01242 -1.55238 3.88021
upperback -0.312079 -2.18487 -0.695468
thorax 1.19533 -1.07091 -2.97412
lowerneck 0.538115 9.20237 0.869332
upperneck -3.19131 12.2007 -5.12173
head -0.690795 6.16182 -1.78422
rclavicle 2.35187e-014 -3.97569e-016
rhumerus -31.62 -3.99892 -93.0645
rradius 27.7434
rwrist 32.6302
rhand 14.2644 -18.9774
rfingers 7.12502
rthumb 39.1588 -44.4518
lclavicle 2.35187e-014 -3.97569e-016
lhumerus -34.807 14.6278 86.4574
lradius 31.152
lwrist -17.4687
lhand -6.1654 11.6005
lfingers 7.12502
lthumb 19.6734 40.625
rfemur -7.69724 11.4729 18.094
rtibia 21.1384
rfoot -18.9833 -9.91421
rtoes -12.0168
lfemur -8.1237 -3.1605 -18.9014
ltibia 24.4925
lfoot -26.8201 16.6314
ltoes -14.8791
32
root -33.658 17.2277 14.1895 -158.184 84.4336 -161.53
lowerback -3.01646 -1.56277 3.96513
upperback -0.323782 -2.20083 -0.740461
thorax 1.17931 -1.07896 -3.06854
lowerneck 0.538157 9.20409 0.996505
upperneck -3.19472 12.2034 -5.21521
head -0.678234 6.16301 -1.83293
rclavicle 2.55811e-014 -5.36719e-015
rhumerus -31.629 -4.03479 -93.0926
rradius 27.7199
rwrist 32.7241
rhand 14.3375 -18.9533
rfingers 7.12502
rthumb 39.2277 -44.4077
lclavicle 2.55811e-014 -5.36719e-015
lhumerus -34.8011 14.5408 86.4749
lradius 31.256
lwrist -17.3016
lhand -6.12134 11.5408
lfingers 7.12502
lthumb 19.7157 40.561
rfemur -7.6971 11.4281 18.0537
rtibia 21.1288
rfoot -19.1304 -9.96438
rtoes -11.5793
lfemur -8.14484 -3.26668 -18.9448
ltibia 24.4941
lfoot -26.8594 16.6373
ltoes -14.7499
33
root -33.6477 17.2259 14.1814 -160.273 84.5391 -163.593
lowerback -3.09585 -1.51752 3.64168
upperback -0.254444 -2.13444 -0.726283
thorax 1.31288 -1.04359 -2.87424
lowerneck 0.541183 9.17977 0.95888
upperneck -3.25705 12.1679 -5.34085
head -0.693764 6.14892 -1.86845
rclavicle -2.09842e-014 3.57812e-015
rhumerus -31.5573 -4.14426 -92.8578
rradius 27.5935
rwrist 33.0339
rhand 14.4455 -18.4179
rfingers 7.12502
rthumb 39.3295 -43.8428
lclavicle -2.09842e-014 3.57812e-015
lhumerus -34.6878 14.4905 86.7196
lradius 31.3223
lwrist -17.1729
lhand -6.22792 11.7245
lfingers 7.12502
lthumb 19.6132 40.7551
rfemur -7.61718 11.2294 17.7736
rtibia 21.1178
rfoot -19.1861 -9.715
rtoes -11.5053
lfemur -8.03097 -3.29454 -19.2359
ltibia 24.4947
lfoot -26.9538 16.7031
ltoes -14.8545
